<?xml version="1.0" encoding="utf-8"?>
<!-- Generator: Adobe Illustrator 22.0.0, SVG Export Plug-In . SVG Version: 6.00 Build 0)  -->
<svg version="1.1"
	 id="svg2" inkscape:version="0.91 r13725" sodipodi:docname="newsweek.svg" xmlns:cc="http://creativecommons.org/ns#" xmlns:dc="http://purl.org/dc/elements/1.1/" xmlns:inkscape="http://www.inkscape.org/namespaces/inkscape" xmlns:rdf="http://www.w3.org/1999/02/22-rdf-syntax-ns#" xmlns:sodipodi="http://sodipodi.sourceforge.net/DTD/sodipodi-0.dtd" xmlns:svg="http://www.w3.org/2000/svg"
	 xmlns="http://www.w3.org/2000/svg" xmlns:xlink="http://www.w3.org/1999/xlink" x="0px" y="0px" viewBox="0 0 3000 462.8"
	 style="enable-background:new 0 0 3000 462.8;" xml:space="preserve">
<style type="text/css">
	.st0{display:none;fill:#800000;}
	.st1{fill:#FFFFFF;}
</style>
<title  id="title4289">Newsweek Logozz</title>
<sodipodi:namedview  bordercolor="#666666" borderopacity="1" fit-margin-bottom="0" fit-margin-left="0" fit-margin-right="0" fit-margin-top="0" gridtolerance="10" guidetolerance="10" id="namedview47" inkscape:current-layer="svg2" inkscape:cx="1500" inkscape:cy="384.43915" inkscape:pageopacity="0" inkscape:pageshadow="2" inkscape:showpageshadow="false" inkscape:window-height="715" inkscape:window-maximized="1" inkscape:window-width="1366" inkscape:window-x="-8" inkscape:window-y="-8" inkscape:zoom="0.26933334" objecttolerance="10" pagecolor="#ffffff" showgrid="false">
	</sodipodi:namedview>
<rect id="Rectangle-7" x="-23.5" y="436.8" class="st0" width="275" height="60"/>
<g id="g4285" transform="matrix(6.8207449,0,0,6.8207449,2382.4852,546.30188)">
	<path id="Logo-Copy" inkscape:connector-curvature="0" class="st1" d="M-283.2-68.1h-6.2V-14H-301l-28.3-36.8V-26h6.2v12h-26.2v-12
		h6.2v-42.1h-6.2v-12h20l26.4,34.3v-22.3h-6.2v-12h26.2C-283.2-80.1-283.2-68.1-283.2-68.1L-283.2-68.1z M-241.7-37.3
		c0,1,0,1.9,0,3.1h-28.9c-0.8,9.3,2.7,12,7.9,12c4.5,0,7.8-2.9,7.8-7.6h12.4c-0.2,8.1-4.5,17.4-20.9,17.4c-16.3,0-23.8-11.8-23.8-25
		c0-11.8,7.8-24.4,23.6-24.4C-248.5-61.7-241.7-51-241.7-37.3L-241.7-37.3z M-170.4-49.1h-4.3l-10.7,35.9h-14.2l-6.6-19.6l-6,19.6
		h-14.3l-11.8-35.9h-4.3v-12.2h25v12.2h-6.2l6.6,19l8.5-31.2h7.8l10.5,31.2l5.6-19h-6.2v-12.2h20.9
		C-170.4-61.3-170.4-49.1-170.4-49.1z M-152.7-48.7c0,1.7,1.4,2.9,6,4.3l6.8,2.1c6.2,2.1,13.8,6.6,13.8,15.1
		c0,9.9-7.4,14.7-16.7,14.7c-7.4,0-13-3.5-14.5-5.2v4.1h-12.2v-16.7h12c0.4,5.4,5.2,8.3,9.5,8.3c3.5,0,5.2-1.6,5.2-3.3
		c0-2.1-1.4-3.5-7.4-5.4l-6-1.9c-6-1.9-12.8-6.4-12.8-14.5c0-9.9,8.7-14.7,16.1-14.7c7.8,0,11.4,2.1,13.4,4.3v-3.7h12.2v14.9h-12.6
		c-0.2-4.1-4.1-5.8-8.1-5.8C-151.4-52-152.7-50.6-152.7-48.7L-152.7-48.7L-152.7-48.7z M-53.1-49.1h-4.3L-68-13.2h-14.2l-6.6-19.6
		l-6,19.6h-14.3L-121-49.1h-4.3v-12.2h25v12.2h-6.2l6.6,19l8.3-31.2h7.8l10.5,31.2l5.6-19H-74v-12.2h20.9L-53.1-49.1L-53.1-49.1z
		 M-8.9-37.3c0,1,0,1.9,0,3.1h-28.7c-0.8,9.3,2.7,12,7.9,12c4.5,0,7.8-2.9,7.8-7.6h12.4c-0.2,8.1-4.7,17.4-20.9,17.4
		c-16.5,0-24-11.8-24-25c0-11.8,7.9-24.4,23.8-24.4C-15.5-61.7-8.9-51.2-8.9-37.3L-8.9-37.3z M38.4-37.4c0,1,0,1.9,0,3.1H9.7
		c-0.8,9.3,2.7,12,7.9,12c4.5,0,7.8-2.9,7.8-7.6h12.4c-0.2,8.1-4.7,17.4-20.9,17.4c-16.5,0-24-11.8-24-25c0-11.8,7.9-24.4,23.8-24.4
		C31.8-61.9,38.4-51.4,38.4-37.4L38.4-37.4z M90.5-13.4H76.2L61.3-33l-4.8,3.7v3.9h4.3v12.2H38.4v-12h4.3v-42.6h-6.2v-12.2h20v38.4
		l10.1-7.4h-6.2v-12.2h26.6v12.2h-4.3l-10.5,7.8l12,15.7h6.2C90.5-25.4,90.5-13.4,90.5-13.4z M9.7-42.1h15.7c0-6.8-4.5-9.5-7.6-9.5
		C14-51.6,9.9-48.5,9.7-42.1L9.7-42.1z M-37.6-42.1h15.7c0-6.8-4.5-9.5-7.8-9.5C-33.3-51.4-37.4-48.3-37.6-42.1L-37.6-42.1
		L-37.6-42.1z M-270.4-41.9h15.7c0-6.8-4.5-9.5-7.8-9.5C-266.3-51.4-270.2-48.3-270.4-41.9z"/>
</g>
</svg>
